solid CATIA STL
  facet normal -1.000000e+000  0.000000e+000  0.000000e+000
    outer loop
      vertex -2.500000e+002 -3.137612e+002  1.578158e+002
      vertex -2.500000e+002 -3.342400e+002  1.721553e+002
      vertex -2.500000e+002 -1.416882e+002  4.035615e+002
    endloop
  endfacet
  facet normal -1.000000e+000  0.000000e+000  -0.000000e+000
    outer loop
      vertex -2.500000e+002  3.335676e+002  2.260030e+002
      vertex -2.500000e+002  3.450768e+002  2.290869e+002
      vertex -2.500000e+002  3.901772e+002  2.249583e+002
    endloop
  endfacet
  facet normal -1.000000e+000  0.000000e+000  -0.000000e+000
    outer loop
      vertex -2.500000e+002 -1.602297e+002  4.206677e+002
      vertex -2.500000e+002 -1.527281e+002  4.300144e+002
      vertex -2.500000e+002 -1.098170e+002  4.286132e+002
    endloop
  endfacet
  facet normal -1.000000e+000  0.000000e+000  0.000000e+000
    outer loop
      vertex -2.500000e+002 -1.602297e+002  4.206677e+002
      vertex -2.500000e+002 -1.098170e+002  4.286132e+002
      vertex -2.500000e+002 -1.190854e+002  4.241835e+002
    endloop
  endfacet
  facet normal -1.000000e+000  0.000000e+000  0.000000e+000
    outer loop
      vertex -2.500000e+002 -1.602297e+002  4.206677e+002
      vertex -2.500000e+002 -1.190854e+002  4.241835e+002
      vertex -2.500000e+002 -1.276058e+002  4.184450e+002
    endloop
  endfacet
  facet normal -9.999999e-001  -0.000000e+000  0.000000e+000
    outer loop
      vertex -2.500000e+002 -1.602297e+002  4.206677e+002
      vertex -2.500000e+002 -1.276058e+002  4.184450e+002
      vertex -2.500000e+002 -1.351945e+002  4.115213e+002
    endloop
  endfacet
  facet normal -1.000000e+000  -0.000000e+000  0.000000e+000
    outer loop
      vertex -2.500000e+002 -1.602297e+002  4.206677e+002
      vertex -2.500000e+002 -1.351945e+002  4.115213e+002
      vertex -2.500000e+002 -1.416882e+002  4.035615e+002
    endloop
  endfacet
  facet normal -9.999999e-001  -0.000000e+000  0.000000e+000
    outer loop
      vertex -2.500000e+002 -1.602297e+002  4.206677e+002
      vertex -2.500000e+002 -1.416882e+002  4.035615e+002
      vertex -2.500000e+002 -3.342400e+002  1.721553e+002
    endloop
  endfacet
  facet normal -1.000000e+000  0.000000e+000  0.000000e+000
    outer loop
      vertex -2.500000e+002  4.000000e+002  2.337789e+002
      vertex -2.500000e+002  3.901772e+002  2.249583e+002
      vertex -2.500000e+002  3.450768e+002  2.290869e+002
    endloop
  endfacet
  facet normal -1.000000e+000  0.000000e+000  0.000000e+000
    outer loop
      vertex -2.500000e+002  4.000000e+002  2.337789e+002
      vertex -2.500000e+002  3.450768e+002  2.290869e+002
      vertex -2.500000e+002  3.561502e+002  2.334860e+002
    endloop
  endfacet
  facet normal -1.000000e+000  0.000000e+000  0.000000e+000
    outer loop
      vertex -2.500000e+002  4.000000e+002  2.337789e+002
      vertex -2.500000e+002  3.561502e+002  2.334860e+002
      vertex -2.500000e+002  3.666380e+002  2.391410e+002
    endloop
  endfacet
  facet normal -1.000000e+000  0.000000e+000  0.000000e+000
    outer loop
      vertex -2.500000e+002  4.000000e+002  2.337789e+002
      vertex -2.500000e+002  3.666380e+002  2.391410e+002
      vertex -2.500000e+002  3.763983e+002  2.459753e+002
    endloop
  endfacet
  facet normal -1.000000e+000  0.000000e+000  0.000000e+000
    outer loop
      vertex -2.500000e+002  4.000000e+002  2.337789e+002
      vertex -2.500000e+002  3.763983e+002  2.459753e+002
      vertex -2.500000e+002  3.852993e+002  2.538965e+002
    endloop
  endfacet
  facet normal -1.000000e+000  0.000000e+000  0.000000e+000
    outer loop
      vertex -2.500000e+002  4.000000e+002  2.337789e+002
      vertex -2.500000e+002  3.852993e+002  2.538965e+002
      vertex -2.500000e+002  6.000000e+002  4.337789e+002
    endloop
  endfacet
  facet normal -1.000000e+000  0.000000e+000  -0.000000e+000
    outer loop
      vertex -2.500000e+002  3.852993e+002  2.538965e+002
      vertex -2.500000e+002  8.037853e+002  6.723824e+002
      vertex -2.500000e+002  8.242641e+002  6.580430e+002
    endloop
  endfacet
  facet normal -9.999999e-001  0.000000e+000  0.000000e+000
    outer loop
      vertex -2.500000e+002  3.852993e+002  2.538965e+002
      vertex -2.500000e+002  8.242641e+002  6.580430e+002
      vertex -2.500000e+002  6.342211e+002  4.680000e+002
    endloop
  endfacet
  facet normal -1.000000e+000  0.000000e+000  0.000000e+000
    outer loop
      vertex -2.500000e+002  3.852993e+002  2.538965e+002
      vertex -2.500000e+002  6.342211e+002  4.680000e+002
      vertex -2.500000e+002  6.000000e+002  4.337789e+002
    endloop
  endfacet
  facet normal -1.000000e+000  0.000000e+000  0.000000e+000
    outer loop
      vertex -2.500000e+002  2.425060e+002  2.200000e+002
      vertex -2.500000e+002 -4.419725e+001  4.207517e+002
      vertex -2.500000e+002  2.540786e+002  2.424162e+002
    endloop
  endfacet
  facet normal -1.000000e+000  0.000000e+000  -0.000000e+000
    outer loop
      vertex -2.500000e+002  2.425060e+002  2.200000e+002
      vertex -2.500000e+002  2.540786e+002  2.424162e+002
      vertex -2.500000e+002  2.642198e+002  2.361609e+002
    endloop
  endfacet
  facet normal -1.000000e+000  0.000000e+000  -0.000000e+000
    outer loop
      vertex -2.500000e+002  2.425060e+002  2.200000e+002
      vertex -2.500000e+002  2.642198e+002  2.361609e+002
      vertex -2.500000e+002  2.750186e+002  2.311254e+002
    endloop
  endfacet
  facet normal -1.000000e+000  0.000000e+000  -0.000000e+000
    outer loop
      vertex -2.500000e+002  2.425060e+002  2.200000e+002
      vertex -2.500000e+002  2.750186e+002  2.311254e+002
      vertex -2.500000e+002  2.863291e+002  2.273775e+002
    endloop
  endfacet
  facet normal -9.999999e-001  0.000000e+000  -0.000000e+000
    outer loop
      vertex -2.500000e+002  2.425060e+002  2.200000e+002
      vertex -2.500000e+002  2.863291e+002  2.273775e+002
      vertex -2.500000e+002  2.979981e+002  2.249680e+002
    endloop
  endfacet
  facet normal -1.000000e+000  0.000000e+000  -0.000000e+000
    outer loop
      vertex -2.500000e+002  2.425060e+002  2.200000e+002
      vertex -2.500000e+002  2.979981e+002  2.249680e+002
      vertex -2.500000e+002  3.098680e+002  2.239295e+002
    endloop
  endfacet
  facet normal -1.000000e+000  0.000000e+000  -0.000000e+000
    outer loop
      vertex -2.500000e+002  2.425060e+002  2.200000e+002
      vertex -2.500000e+002  3.098680e+002  2.239295e+002
      vertex -2.500000e+002  3.794655e+002  2.172415e+002
    endloop
  endfacet
  facet normal -1.000000e+000  -0.000000e+000  0.000000e+000
    outer loop
      vertex -2.500000e+002  2.425060e+002  2.200000e+002
      vertex -2.500000e+002  3.794655e+002  2.172415e+002
      vertex -2.500000e+002  3.679882e+002  2.107174e+002
    endloop
  endfacet
  facet normal -1.000000e+000  0.000000e+000  0.000000e+000
    outer loop
      vertex -2.500000e+002  2.425060e+002  2.200000e+002
      vertex -2.500000e+002  3.679882e+002  2.107174e+002
      vertex -2.500000e+002  2.537112e+002  2.130191e+002
    endloop
  endfacet
  facet normal -1.000000e+000  0.000000e+000  0.000000e+000
    outer loop
      vertex -2.500000e+002 -1.098170e+002  4.286132e+002
      vertex -2.500000e+002 -1.527281e+002  4.300144e+002
      vertex -2.500000e+002 -1.000000e+002  4.316387e+002
    endloop
  endfacet
  facet normal -9.999999e-001  -0.000000e+000  0.000000e+000
    outer loop
      vertex -2.500000e+002 -1.000000e+002  4.316387e+002
      vertex -2.500000e+002 -1.527281e+002  4.300144e+002
      vertex -2.500000e+002 -1.440708e+002  4.383021e+002
    endloop
  endfacet
  facet normal -1.000000e+000  0.000000e+000  0.000000e+000
    outer loop
      vertex -2.500000e+002 -1.000000e+002  4.316387e+002
      vertex -2.500000e+002 -1.440708e+002  4.383021e+002
      vertex -2.500000e+002 -5.000000e+001  4.244049e+002
    endloop
  endfacet
  facet normal -1.000000e+000  -0.000000e+000  0.000000e+000
    outer loop
      vertex -2.500000e+002 -8.917358e+001  4.596504e+002
      vertex -2.500000e+002 -7.719166e+001  4.593890e+002
      vertex -2.500000e+002 -1.010871e+002  4.583457e+002
    endloop
  endfacet
  facet normal -1.000000e+000  0.000000e+000  0.000000e+000
    outer loop
      vertex -2.500000e+002 -1.010871e+002  4.583457e+002
      vertex -2.500000e+002 -7.719166e+001  4.593890e+002
      vertex -2.500000e+002 -6.534637e+001  4.575658e+002
    endloop
  endfacet
  facet normal -1.000000e+000  -0.000000e+000  0.000000e+000
    outer loop
      vertex -2.500000e+002 -1.010871e+002  4.583457e+002
      vertex -2.500000e+002 -6.534637e+001  4.575658e+002
      vertex -2.500000e+002 -1.127284e+002  4.554970e+002
    endloop
  endfacet
  facet normal -1.000000e+000  0.000000e+000  0.000000e+000
    outer loop
      vertex -2.500000e+002 -1.127284e+002  4.554970e+002
      vertex -2.500000e+002 -6.534637e+001  4.575658e+002
      vertex -2.500000e+002 -5.384039e+001  4.542121e+002
    endloop
  endfacet
  facet normal -1.000000e+000  -0.000000e+000  0.000000e+000
    outer loop
      vertex -2.500000e+002 -1.127284e+002  4.554970e+002
      vertex -2.500000e+002 -5.384039e+001  4.542121e+002
      vertex -2.500000e+002 -1.238983e+002  4.511533e+002
    endloop
  endfacet
  facet normal -9.999999e-001  0.000000e+000  0.000000e+000
    outer loop
      vertex -2.500000e+002 -1.238983e+002  4.511533e+002
      vertex -2.500000e+002 -5.384039e+001  4.542121e+002
      vertex -2.500000e+002 -4.287058e+001  4.493853e+002
    endloop
  endfacet
  facet normal -1.000000e+000  -0.000000e+000  0.000000e+000
    outer loop
      vertex -2.500000e+002 -1.238983e+002  4.511533e+002
      vertex -2.500000e+002 -4.287058e+001  4.493853e+002
      vertex -2.500000e+002 -1.344057e+002  4.453888e+002
    endloop
  endfacet
  facet normal -1.000000e+000  0.000000e+000  0.000000e+000
    outer loop
      vertex -2.500000e+002 -1.344057e+002  4.453888e+002
      vertex -2.500000e+002 -4.287058e+001  4.493853e+002
      vertex -2.500000e+002 -3.262466e+001  4.431679e+002
    endloop
  endfacet
  facet normal -1.000000e+000  -0.000000e+000  0.000000e+000
    outer loop
      vertex -2.500000e+002 -1.344057e+002  4.453888e+002
      vertex -2.500000e+002 -3.262466e+001  4.431679e+002
      vertex -2.500000e+002 -1.440708e+002  4.383021e+002
    endloop
  endfacet
  facet normal -1.000000e+000  0.000000e+000  0.000000e+000
    outer loop
      vertex -2.500000e+002 -1.440708e+002  4.383021e+002
      vertex -2.500000e+002 -3.262466e+001  4.431679e+002
      vertex -2.500000e+002 -5.000000e+001  4.244049e+002
    endloop
  endfacet
  facet normal -1.000000e+000  0.000000e+000  0.000000e+000
    outer loop
      vertex -2.500000e+002 -5.000000e+001  0.000000e+000
      vertex -2.500000e+002 -1.000000e+002  0.000000e+000
      vertex -2.500000e+002 -5.000000e+001  4.244049e+002
    endloop
  endfacet
  facet normal -1.000000e+000  -0.000000e+000  0.000000e+000
    outer loop
      vertex -2.500000e+002 -5.000000e+001  4.244049e+002
      vertex -2.500000e+002 -1.000000e+002  0.000000e+000
      vertex -2.500000e+002 -1.000000e+002  4.316387e+002
    endloop
  endfacet
  facet normal -1.000000e+000  0.000000e+000  0.000000e+000
    outer loop
      vertex -2.500000e+002  3.794655e+002  2.172415e+002
      vertex -2.500000e+002  3.098680e+002  2.239295e+002
      vertex -2.500000e+002  3.901772e+002  2.249583e+002
    endloop
  endfacet
  facet normal -1.000000e+000  0.000000e+000  0.000000e+000
    outer loop
      vertex -2.500000e+002  3.901772e+002  2.249583e+002
      vertex -2.500000e+002  3.098680e+002  2.239295e+002
      vertex -2.500000e+002  3.217782e+002  2.242761e+002
    endloop
  endfacet
  facet normal -1.000000e+000  0.000000e+000  0.000000e+000
    outer loop
      vertex -2.500000e+002  3.901772e+002  2.249583e+002
      vertex -2.500000e+002  3.217782e+002  2.242761e+002
      vertex -2.500000e+002  3.335676e+002  2.260030e+002
    endloop
  endfacet
  facet normal -1.000000e+000  -0.000000e+000  0.000000e+000
    outer loop
      vertex -2.500000e+002  2.537112e+002  2.130191e+002
      vertex -2.500000e+002  3.679882e+002  2.107174e+002
      vertex -2.500000e+002  2.656003e+002  2.072796e+002
    endloop
  endfacet
  facet normal -1.000000e+000  0.000000e+000  0.000000e+000
    outer loop
      vertex -2.500000e+002  2.656003e+002  2.072796e+002
      vertex -2.500000e+002  3.679882e+002  2.107174e+002
      vertex -2.500000e+002  3.558777e+002  2.054613e+002
    endloop
  endfacet
  facet normal -1.000000e+000  -0.000000e+000  0.000000e+000
    outer loop
      vertex -2.500000e+002  2.656003e+002  2.072796e+002
      vertex -2.500000e+002  3.558777e+002  2.054613e+002
      vertex -2.500000e+002  2.780360e+002  2.028476e+002
    endloop
  endfacet
  facet normal -1.000000e+000  0.000000e+000  0.000000e+000
    outer loop
      vertex -2.500000e+002  2.780360e+002  2.028476e+002
      vertex -2.500000e+002  3.558777e+002  2.054613e+002
      vertex -2.500000e+002  3.432735e+002  2.015337e+002
    endloop
  endfacet
  facet normal -1.000000e+000  -0.000000e+000  0.000000e+000
    outer loop
      vertex -2.500000e+002  2.780360e+002  2.028476e+002
      vertex -2.500000e+002  3.432735e+002  2.015337e+002
      vertex -2.500000e+002  2.908753e+002  1.997743e+002
    endloop
  endfacet
  facet normal -9.999999e-001  0.000000e+000  0.000000e+000
    outer loop
      vertex -2.500000e+002  2.908753e+002  1.997743e+002
      vertex -2.500000e+002  3.432735e+002  2.015337e+002
      vertex -2.500000e+002  3.303210e+002  1.989798e+002
    endloop
  endfacet
  facet normal -1.000000e+000  -0.000000e+000  0.000000e+000
    outer loop
      vertex -2.500000e+002  2.908753e+002  1.997743e+002
      vertex -2.500000e+002  3.303210e+002  1.989798e+002
      vertex -2.500000e+002  3.039700e+002  1.980950e+002
    endloop
  endfacet
  facet normal -1.000000e+000  0.000000e+000  0.000000e+000
    outer loop
      vertex -2.500000e+002  3.039700e+002  1.980950e+002
      vertex -2.500000e+002  3.303210e+002  1.989798e+002
      vertex -2.500000e+002  3.171693e+002  1.978292e+002
    endloop
  endfacet
  facet normal -1.000000e+000  0.000000e+000  0.000000e+000
    outer loop
      vertex -2.500000e+002  2.540786e+002  2.424162e+002
      vertex -2.500000e+002 -4.419725e+001  4.207517e+002
      vertex -2.500000e+002 -3.262466e+001  4.431679e+002
    endloop
  endfacet
  facet normal -1.000000e+000  0.000000e+000  0.000000e+000
    outer loop
      vertex -2.500000e+002 -3.262466e+001  4.431679e+002
      vertex -2.500000e+002 -4.419725e+001  4.207517e+002
      vertex -2.500000e+002 -5.000000e+001  4.244049e+002
    endloop
  endfacet
  facet normal -1.000000e+000  0.000000e+000  0.000000e+000
    outer loop
      vertex -2.500000e+002  6.500000e+002  0.000000e+000
      vertex -2.500000e+002  6.000000e+002  0.000000e+000
      vertex -2.500000e+002  6.500000e+002  4.680000e+002
    endloop
  endfacet
  facet normal -1.000000e+000  0.000000e+000  0.000000e+000
    outer loop
      vertex -2.500000e+002  6.500000e+002  4.680000e+002
      vertex -2.500000e+002  6.000000e+002  0.000000e+000
      vertex -2.500000e+002  6.000000e+002  4.337789e+002
    endloop
  endfacet
  facet normal -1.000000e+000  0.000000e+000  0.000000e+000
    outer loop
      vertex -2.500000e+002  6.500000e+002  4.680000e+002
      vertex -2.500000e+002  6.000000e+002  4.337789e+002
      vertex -2.500000e+002  6.342211e+002  4.680000e+002
    endloop
  endfacet
  facet normal  1.000000e+000  -0.000000e+000  0.000000e+000
    outer loop
      vertex  2.500000e+002 -1.416882e+002  4.035615e+002
      vertex  2.500000e+002 -3.342400e+002  1.721553e+002
      vertex  2.500000e+002 -3.137612e+002  1.578158e+002
    endloop
  endfacet
  facet normal  1.000000e+000  0.000000e+000  0.000000e+000
    outer loop
      vertex  2.500000e+002  3.901772e+002  2.249583e+002
      vertex  2.500000e+002  3.450768e+002  2.290869e+002
      vertex  2.500000e+002  3.335676e+002  2.260030e+002
    endloop
  endfacet
  facet normal  9.999999e-001  0.000000e+000  0.000000e+000
    outer loop
      vertex  2.500000e+002 -1.602297e+002  4.206677e+002
      vertex  2.500000e+002 -3.342400e+002  1.721553e+002
      vertex  2.500000e+002 -1.416882e+002  4.035615e+002
    endloop
  endfacet
  facet normal  1.000000e+000  0.000000e+000  -0.000000e+000
    outer loop
      vertex  2.500000e+002 -1.602297e+002  4.206677e+002
      vertex  2.500000e+002 -1.416882e+002  4.035615e+002
      vertex  2.500000e+002 -1.351945e+002  4.115213e+002
    endloop
  endfacet
  facet normal  9.999999e-001  0.000000e+000  -0.000000e+000
    outer loop
      vertex  2.500000e+002 -1.602297e+002  4.206677e+002
      vertex  2.500000e+002 -1.351945e+002  4.115213e+002
      vertex  2.500000e+002 -1.276058e+002  4.184450e+002
    endloop
  endfacet
  facet normal  1.000000e+000  0.000000e+000  -0.000000e+000
    outer loop
      vertex  2.500000e+002 -1.602297e+002  4.206677e+002
      vertex  2.500000e+002 -1.276058e+002  4.184450e+002
      vertex  2.500000e+002 -1.190854e+002  4.241835e+002
    endloop
  endfacet
  facet normal  1.000000e+000  0.000000e+000  -0.000000e+000
    outer loop
      vertex  2.500000e+002 -1.602297e+002  4.206677e+002
      vertex  2.500000e+002 -1.190854e+002  4.241835e+002
      vertex  2.500000e+002 -1.098170e+002  4.286132e+002
    endloop
  endfacet
  facet normal  1.000000e+000  0.000000e+000  0.000000e+000
    outer loop
      vertex  2.500000e+002 -1.602297e+002  4.206677e+002
      vertex  2.500000e+002 -1.098170e+002  4.286132e+002
      vertex  2.500000e+002 -1.527281e+002  4.300144e+002
    endloop
  endfacet
  facet normal  1.000000e+000  0.000000e+000  0.000000e+000
    outer loop
      vertex  2.500000e+002  4.000000e+002  2.337789e+002
      vertex  2.500000e+002  6.000000e+002  4.337789e+002
      vertex  2.500000e+002  3.852993e+002  2.538965e+002
    endloop
  endfacet
  facet normal  1.000000e+000  0.000000e+000  0.000000e+000
    outer loop
      vertex  2.500000e+002  4.000000e+002  2.337789e+002
      vertex  2.500000e+002  3.852993e+002  2.538965e+002
      vertex  2.500000e+002  3.763983e+002  2.459753e+002
    endloop
  endfacet
  facet normal  1.000000e+000  0.000000e+000  0.000000e+000
    outer loop
      vertex  2.500000e+002  4.000000e+002  2.337789e+002
      vertex  2.500000e+002  3.763983e+002  2.459753e+002
      vertex  2.500000e+002  3.666380e+002  2.391410e+002
    endloop
  endfacet
  facet normal  1.000000e+000  0.000000e+000  0.000000e+000
    outer loop
      vertex  2.500000e+002  4.000000e+002  2.337789e+002
      vertex  2.500000e+002  3.666380e+002  2.391410e+002
      vertex  2.500000e+002  3.561502e+002  2.334860e+002
    endloop
  endfacet
  facet normal  1.000000e+000  -0.000000e+000  0.000000e+000
    outer loop
      vertex  2.500000e+002  4.000000e+002  2.337789e+002
      vertex  2.500000e+002  3.561502e+002  2.334860e+002
      vertex  2.500000e+002  3.450768e+002  2.290869e+002
    endloop
  endfacet
  facet normal  1.000000e+000  -0.000000e+000  0.000000e+000
    outer loop
      vertex  2.500000e+002  4.000000e+002  2.337789e+002
      vertex  2.500000e+002  3.450768e+002  2.290869e+002
      vertex  2.500000e+002  3.901772e+002  2.249583e+002
    endloop
  endfacet
  facet normal  1.000000e+000  0.000000e+000  -0.000000e+000
    outer loop
      vertex  2.500000e+002  3.852993e+002  2.538965e+002
      vertex  2.500000e+002  6.000000e+002  4.337789e+002
      vertex  2.500000e+002  6.342211e+002  4.680000e+002
    endloop
  endfacet
  facet normal  9.999999e-001  0.000000e+000  -0.000000e+000
    outer loop
      vertex  2.500000e+002  3.852993e+002  2.538965e+002
      vertex  2.500000e+002  6.342211e+002  4.680000e+002
      vertex  2.500000e+002  8.242641e+002  6.580430e+002
    endloop
  endfacet
  facet normal  1.000000e+000  0.000000e+000  0.000000e+000
    outer loop
      vertex  2.500000e+002  3.852993e+002  2.538965e+002
      vertex  2.500000e+002  8.242641e+002  6.580430e+002
      vertex  2.500000e+002  8.037853e+002  6.723824e+002
    endloop
  endfacet
  facet normal  1.000000e+000  -0.000000e+000  -0.000000e+000
    outer loop
      vertex  2.500000e+002  2.425060e+002  2.200000e+002
      vertex  2.500000e+002  2.537112e+002  2.130191e+002
      vertex  2.500000e+002  3.679882e+002  2.107174e+002
    endloop
  endfacet
  facet normal  1.000000e+000  0.000000e+000  -0.000000e+000
    outer loop
      vertex  2.500000e+002  2.425060e+002  2.200000e+002
      vertex  2.500000e+002  3.679882e+002  2.107174e+002
      vertex  2.500000e+002  3.794655e+002  2.172415e+002
    endloop
  endfacet
  facet normal  1.000000e+000  0.000000e+000  0.000000e+000
    outer loop
      vertex  2.500000e+002  2.425060e+002  2.200000e+002
      vertex  2.500000e+002  3.794655e+002  2.172415e+002
      vertex  2.500000e+002  3.098680e+002  2.239295e+002
    endloop
  endfacet
  facet normal  1.000000e+000  0.000000e+000  0.000000e+000
    outer loop
      vertex  2.500000e+002  2.425060e+002  2.200000e+002
      vertex  2.500000e+002  3.098680e+002  2.239295e+002
      vertex  2.500000e+002  2.979981e+002  2.249680e+002
    endloop
  endfacet
  facet normal  9.999999e-001  0.000000e+000  0.000000e+000
    outer loop
      vertex  2.500000e+002  2.425060e+002  2.200000e+002
      vertex  2.500000e+002  2.979981e+002  2.249680e+002
      vertex  2.500000e+002  2.863291e+002  2.273775e+002
    endloop
  endfacet
  facet normal  1.000000e+000  0.000000e+000  0.000000e+000
    outer loop
      vertex  2.500000e+002  2.425060e+002  2.200000e+002
      vertex  2.500000e+002  2.863291e+002  2.273775e+002
      vertex  2.500000e+002  2.750186e+002  2.311254e+002
    endloop
  endfacet
  facet normal  1.000000e+000  0.000000e+000  0.000000e+000
    outer loop
      vertex  2.500000e+002  2.425060e+002  2.200000e+002
      vertex  2.500000e+002  2.750186e+002  2.311254e+002
      vertex  2.500000e+002  2.642198e+002  2.361609e+002
    endloop
  endfacet
  facet normal  1.000000e+000  0.000000e+000  0.000000e+000
    outer loop
      vertex  2.500000e+002  2.425060e+002  2.200000e+002
      vertex  2.500000e+002  2.642198e+002  2.361609e+002
      vertex  2.500000e+002  2.540786e+002  2.424162e+002
    endloop
  endfacet
  facet normal  1.000000e+000  0.000000e+000  0.000000e+000
    outer loop
      vertex  2.500000e+002  2.425060e+002  2.200000e+002
      vertex  2.500000e+002  2.540786e+002  2.424162e+002
      vertex  2.500000e+002 -4.419725e+001  4.207517e+002
    endloop
  endfacet
  facet normal  1.000000e+000  0.000000e+000  0.000000e+000
    outer loop
      vertex  2.500000e+002 -1.527281e+002  4.300144e+002
      vertex  2.500000e+002 -1.098170e+002  4.286132e+002
      vertex  2.500000e+002 -1.440708e+002  4.383021e+002
    endloop
  endfacet
  facet normal  1.000000e+000  0.000000e+000  0.000000e+000
    outer loop
      vertex  2.500000e+002 -1.440708e+002  4.383021e+002
      vertex  2.500000e+002 -1.098170e+002  4.286132e+002
      vertex  2.500000e+002 -1.000000e+002  4.316387e+002
    endloop
  endfacet
  facet normal  1.000000e+000  -0.000000e+000  -0.000000e+000
    outer loop
      vertex  2.500000e+002 -1.440708e+002  4.383021e+002
      vertex  2.500000e+002 -1.000000e+002  4.316387e+002
      vertex  2.500000e+002 -5.000000e+001  4.244049e+002
    endloop
  endfacet
  facet normal  1.000000e+000  0.000000e+000  0.000000e+000
    outer loop
      vertex  2.500000e+002 -7.719166e+001  4.593890e+002
      vertex  2.500000e+002 -8.917358e+001  4.596504e+002
      vertex  2.500000e+002 -6.534637e+001  4.575658e+002
    endloop
  endfacet
  facet normal  1.000000e+000  0.000000e+000  0.000000e+000
    outer loop
      vertex  2.500000e+002 -6.534637e+001  4.575658e+002
      vertex  2.500000e+002 -8.917358e+001  4.596504e+002
      vertex  2.500000e+002 -1.010871e+002  4.583457e+002
    endloop
  endfacet
  facet normal  1.000000e+000  0.000000e+000  0.000000e+000
    outer loop
      vertex  2.500000e+002 -6.534637e+001  4.575658e+002
      vertex  2.500000e+002 -1.010871e+002  4.583457e+002
      vertex  2.500000e+002 -5.384039e+001  4.542121e+002
    endloop
  endfacet
  facet normal  1.000000e+000  0.000000e+000  0.000000e+000
    outer loop
      vertex  2.500000e+002 -5.384039e+001  4.542121e+002
      vertex  2.500000e+002 -1.010871e+002  4.583457e+002
      vertex  2.500000e+002 -1.127284e+002  4.554970e+002
    endloop
  endfacet
  facet normal  1.000000e+000  0.000000e+000  0.000000e+000
    outer loop
      vertex  2.500000e+002 -5.384039e+001  4.542121e+002
      vertex  2.500000e+002 -1.127284e+002  4.554970e+002
      vertex  2.500000e+002 -4.287058e+001  4.493853e+002
    endloop
  endfacet
  facet normal  1.000000e+000  0.000000e+000  0.000000e+000
    outer loop
      vertex  2.500000e+002 -4.287058e+001  4.493853e+002
      vertex  2.500000e+002 -1.127284e+002  4.554970e+002
      vertex  2.500000e+002 -1.238983e+002  4.511533e+002
    endloop
  endfacet
  facet normal  9.999999e-001  0.000000e+000  0.000000e+000
    outer loop
      vertex  2.500000e+002 -4.287058e+001  4.493853e+002
      vertex  2.500000e+002 -1.238983e+002  4.511533e+002
      vertex  2.500000e+002 -3.262466e+001  4.431679e+002
    endloop
  endfacet
  facet normal  1.000000e+000  0.000000e+000  0.000000e+000
    outer loop
      vertex  2.500000e+002 -3.262466e+001  4.431679e+002
      vertex  2.500000e+002 -1.238983e+002  4.511533e+002
      vertex  2.500000e+002 -1.344057e+002  4.453888e+002
    endloop
  endfacet
  facet normal  1.000000e+000  0.000000e+000  0.000000e+000
    outer loop
      vertex  2.500000e+002 -3.262466e+001  4.431679e+002
      vertex  2.500000e+002 -1.344057e+002  4.453888e+002
      vertex  2.500000e+002 -5.000000e+001  4.244049e+002
    endloop
  endfacet
  facet normal  1.000000e+000  0.000000e+000  0.000000e+000
    outer loop
      vertex  2.500000e+002 -5.000000e+001  4.244049e+002
      vertex  2.500000e+002 -1.344057e+002  4.453888e+002
      vertex  2.500000e+002 -1.440708e+002  4.383021e+002
    endloop
  endfacet
  facet normal  1.000000e+000  0.000000e+000  0.000000e+000
    outer loop
      vertex  2.500000e+002 -1.000000e+002  0.000000e+000
      vertex  2.500000e+002 -5.000000e+001  0.000000e+000
      vertex  2.500000e+002 -1.000000e+002  4.316387e+002
    endloop
  endfacet
  facet normal  1.000000e+000  0.000000e+000  0.000000e+000
    outer loop
      vertex  2.500000e+002 -1.000000e+002  4.316387e+002
      vertex  2.500000e+002 -5.000000e+001  0.000000e+000
      vertex  2.500000e+002 -5.000000e+001  4.244049e+002
    endloop
  endfacet
  facet normal  1.000000e+000  0.000000e+000  0.000000e+000
    outer loop
      vertex  2.500000e+002  3.098680e+002  2.239295e+002
      vertex  2.500000e+002  3.794655e+002  2.172415e+002
      vertex  2.500000e+002  3.217782e+002  2.242761e+002
    endloop
  endfacet
  facet normal  1.000000e+000  -0.000000e+000  0.000000e+000
    outer loop
      vertex  2.500000e+002  3.217782e+002  2.242761e+002
      vertex  2.500000e+002  3.794655e+002  2.172415e+002
      vertex  2.500000e+002  3.901772e+002  2.249583e+002
    endloop
  endfacet
  facet normal  1.000000e+000  0.000000e+000  0.000000e+000
    outer loop
      vertex  2.500000e+002  3.217782e+002  2.242761e+002
      vertex  2.500000e+002  3.901772e+002  2.249583e+002
      vertex  2.500000e+002  3.335676e+002  2.260030e+002
    endloop
  endfacet
  facet normal  1.000000e+000  0.000000e+000  0.000000e+000
    outer loop
      vertex  2.500000e+002  3.679882e+002  2.107174e+002
      vertex  2.500000e+002  2.537112e+002  2.130191e+002
      vertex  2.500000e+002  3.558777e+002  2.054613e+002
    endloop
  endfacet
  facet normal  1.000000e+000  0.000000e+000  0.000000e+000
    outer loop
      vertex  2.500000e+002  3.558777e+002  2.054613e+002
      vertex  2.500000e+002  2.537112e+002  2.130191e+002
      vertex  2.500000e+002  2.656003e+002  2.072796e+002
    endloop
  endfacet
  facet normal  1.000000e+000  0.000000e+000  0.000000e+000
    outer loop
      vertex  2.500000e+002  3.558777e+002  2.054613e+002
      vertex  2.500000e+002  2.656003e+002  2.072796e+002
      vertex  2.500000e+002  3.432735e+002  2.015337e+002
    endloop
  endfacet
  facet normal  1.000000e+000  0.000000e+000  0.000000e+000
    outer loop
      vertex  2.500000e+002  3.432735e+002  2.015337e+002
      vertex  2.500000e+002  2.656003e+002  2.072796e+002
      vertex  2.500000e+002  2.780360e+002  2.028476e+002
    endloop
  endfacet
  facet normal  1.000000e+000  0.000000e+000  0.000000e+000
    outer loop
      vertex  2.500000e+002  3.432735e+002  2.015337e+002
      vertex  2.500000e+002  2.780360e+002  2.028476e+002
      vertex  2.500000e+002  3.303210e+002  1.989798e+002
    endloop
  endfacet
  facet normal  1.000000e+000  0.000000e+000  0.000000e+000
    outer loop
      vertex  2.500000e+002  3.303210e+002  1.989798e+002
      vertex  2.500000e+002  2.780360e+002  2.028476e+002
      vertex  2.500000e+002  2.908753e+002  1.997743e+002
    endloop
  endfacet
  facet normal  1.000000e+000  0.000000e+000  0.000000e+000
    outer loop
      vertex  2.500000e+002  3.303210e+002  1.989798e+002
      vertex  2.500000e+002  2.908753e+002  1.997743e+002
      vertex  2.500000e+002  3.171693e+002  1.978292e+002
    endloop
  endfacet
  facet normal  1.000000e+000  0.000000e+000  0.000000e+000
    outer loop
      vertex  2.500000e+002  3.171693e+002  1.978292e+002
      vertex  2.500000e+002  2.908753e+002  1.997743e+002
      vertex  2.500000e+002  3.039700e+002  1.980950e+002
    endloop
  endfacet
  facet normal  1.000000e+000  0.000000e+000  0.000000e+000
    outer loop
      vertex  2.500000e+002 -4.419725e+001  4.207517e+002
      vertex  2.500000e+002  2.540786e+002  2.424162e+002
      vertex  2.500000e+002 -5.000000e+001  4.244049e+002
    endloop
  endfacet
  facet normal  1.000000e+000  -0.000000e+000  0.000000e+000
    outer loop
      vertex  2.500000e+002 -5.000000e+001  4.244049e+002
      vertex  2.500000e+002  2.540786e+002  2.424162e+002
      vertex  2.500000e+002 -3.262466e+001  4.431679e+002
    endloop
  endfacet
  facet normal  1.000000e+000  0.000000e+000  0.000000e+000
    outer loop
      vertex  2.500000e+002  6.000000e+002  0.000000e+000
      vertex  2.500000e+002  6.500000e+002  0.000000e+000
      vertex  2.500000e+002  6.000000e+002  4.337789e+002
    endloop
  endfacet
  facet normal  1.000000e+000  -0.000000e+000  0.000000e+000
    outer loop
      vertex  2.500000e+002  6.000000e+002  4.337789e+002
      vertex  2.500000e+002  6.500000e+002  0.000000e+000
      vertex  2.500000e+002  6.500000e+002  4.680000e+002
    endloop
  endfacet
  facet normal  1.000000e+000  0.000000e+000  0.000000e+000
    outer loop
      vertex  2.500000e+002  6.000000e+002  4.337789e+002
      vertex  2.500000e+002  6.500000e+002  4.680000e+002
      vertex  2.500000e+002  6.342211e+002  4.680000e+002
    endloop
  endfacet
  facet normal  0.000000e+000  1.000000e+000  0.000000e+000
    outer loop
      vertex -2.500000e+002 -5.000000e+001  0.000000e+000
      vertex -2.500000e+002 -5.000000e+001  4.244049e+002
      vertex -2.000000e+002 -5.000000e+001  0.000000e+000
    endloop
  endfacet
  facet normal  0.000000e+000  1.000000e+000  -0.000000e+000
    outer loop
      vertex -2.000000e+002 -5.000000e+001  0.000000e+000
      vertex -2.500000e+002 -5.000000e+001  4.244049e+002
      vertex -2.000000e+002 -5.000000e+001  4.244049e+002
    endloop
  endfacet
  facet normal  0.000000e+000 -1.000000e+000  -0.000000e+000
    outer loop
      vertex -2.000000e+002 -1.000000e+002  0.000000e+000
      vertex -2.000000e+002 -1.000000e+002  4.316387e+002
      vertex -2.500000e+002 -1.000000e+002  0.000000e+000
    endloop
  endfacet
  facet normal  0.000000e+000 -1.000000e+000  0.000000e+000
    outer loop
      vertex -2.500000e+002 -1.000000e+002  0.000000e+000
      vertex -2.000000e+002 -1.000000e+002  4.316387e+002
      vertex -2.500000e+002 -1.000000e+002  4.316387e+002
    endloop
  endfacet
  facet normal  0.000000e+000 -1.000000e+000  -0.000000e+000
    outer loop
      vertex  2.500000e+002 -1.000000e+002  0.000000e+000
      vertex  2.500000e+002 -1.000000e+002  4.316387e+002
      vertex  2.000000e+002 -1.000000e+002  0.000000e+000
    endloop
  endfacet
  facet normal  0.000000e+000 -1.000000e+000  0.000000e+000
    outer loop
      vertex  2.000000e+002 -1.000000e+002  0.000000e+000
      vertex  2.500000e+002 -1.000000e+002  4.316387e+002
      vertex  2.000000e+002 -1.000000e+002  4.316387e+002
    endloop
  endfacet
  facet normal  0.000000e+000  1.000000e+000  0.000000e+000
    outer loop
      vertex  2.000000e+002 -5.000000e+001  0.000000e+000
      vertex  2.000000e+002 -5.000000e+001  4.244049e+002
      vertex  2.500000e+002 -5.000000e+001  0.000000e+000
    endloop
  endfacet
  facet normal  0.000000e+000  1.000000e+000  -0.000000e+000
    outer loop
      vertex  2.500000e+002 -5.000000e+001  0.000000e+000
      vertex  2.000000e+002 -5.000000e+001  4.244049e+002
      vertex  2.500000e+002 -5.000000e+001  4.244049e+002
    endloop
  endfacet
  facet normal  0.000000e+000  2.945219e-001 -9.556448e-001
    outer loop
      vertex -2.500000e+002 -1.098170e+002  4.286132e+002
      vertex -2.500000e+002 -1.000000e+002  4.316387e+002
      vertex -2.000000e+002 -1.000000e+002  4.316387e+002
    endloop
  endfacet
  facet normal  0.000000e+000  2.945219e-001 -9.556448e-001
    outer loop
      vertex -2.500000e+002 -1.098170e+002  4.286132e+002
      vertex -2.000000e+002 -1.000000e+002  4.316387e+002
      vertex  2.000000e+002 -1.000000e+002  4.316387e+002
    endloop
  endfacet
  facet normal  0.000000e+000  2.945219e-001 -9.556448e-001
    outer loop
      vertex -2.500000e+002 -1.098170e+002  4.286132e+002
      vertex  2.000000e+002 -1.000000e+002  4.316387e+002
      vertex  2.500000e+002 -1.000000e+002  4.316387e+002
    endloop
  endfacet
  facet normal  0.000000e+000  2.945219e-001 -9.556448e-001
    outer loop
      vertex -2.500000e+002 -1.098170e+002  4.286132e+002
      vertex  2.500000e+002 -1.000000e+002  4.316387e+002
      vertex  2.500000e+002 -1.098170e+002  4.286132e+002
    endloop
  endfacet
  facet normal  -0.000000e+000 -5.327699e-001 -8.462601e-001
    outer loop
      vertex  2.500000e+002 -4.419725e+001  4.207517e+002
      vertex  2.500000e+002 -5.000000e+001  4.244049e+002
      vertex  2.000000e+002 -5.000000e+001  4.244049e+002
    endloop
  endfacet
  facet normal  -0.000000e+000 -5.327699e-001 -8.462601e-001
    outer loop
      vertex  2.500000e+002 -4.419725e+001  4.207517e+002
      vertex  2.000000e+002 -5.000000e+001  4.244049e+002
      vertex -2.000000e+002 -5.000000e+001  4.244049e+002
    endloop
  endfacet
  facet normal  -0.000000e+000 -5.327699e-001 -8.462601e-001
    outer loop
      vertex  2.500000e+002 -4.419725e+001  4.207517e+002
      vertex -2.000000e+002 -5.000000e+001  4.244049e+002
      vertex -2.500000e+002 -5.000000e+001  4.244049e+002
    endloop
  endfacet
  facet normal  0.000000e+000 -5.327699e-001 -8.462601e-001
    outer loop
      vertex  2.500000e+002 -4.419725e+001  4.207517e+002
      vertex -2.500000e+002 -5.000000e+001  4.244049e+002
      vertex -2.500000e+002 -4.419725e+001  4.207517e+002
    endloop
  endfacet
  facet normal  0.000000e+000  7.748569e-001 -6.321367e-001
    outer loop
      vertex  2.500000e+002 -1.416882e+002  4.035615e+002
      vertex -2.500000e+002 -1.416882e+002  4.035615e+002
      vertex  2.500000e+002 -1.351945e+002  4.115213e+002
    endloop
  endfacet
  facet normal  0.000000e+000  7.748569e-001 -6.321367e-001
    outer loop
      vertex  2.500000e+002 -1.351945e+002  4.115213e+002
      vertex -2.500000e+002 -1.416882e+002  4.035615e+002
      vertex -2.500000e+002 -1.351945e+002  4.115213e+002
    endloop
  endfacet
  facet normal  0.000000e+000  6.739960e-001 -7.387350e-001
    outer loop
      vertex  2.500000e+002 -1.351945e+002  4.115213e+002
      vertex -2.500000e+002 -1.351945e+002  4.115213e+002
      vertex  2.500000e+002 -1.276058e+002  4.184450e+002
    endloop
  endfacet
  facet normal  0.000000e+000  6.739960e-001 -7.387350e-001
    outer loop
      vertex  2.500000e+002 -1.276058e+002  4.184450e+002
      vertex -2.500000e+002 -1.351945e+002  4.115213e+002
      vertex -2.500000e+002 -1.276058e+002  4.184450e+002
    endloop
  endfacet
  facet normal  0.000000e+000  5.586202e-001 -8.294235e-001
    outer loop
      vertex  2.500000e+002 -1.276058e+002  4.184450e+002
      vertex -2.500000e+002 -1.276058e+002  4.184450e+002
      vertex  2.500000e+002 -1.190854e+002  4.241835e+002
    endloop
  endfacet
  facet normal  0.000000e+000  5.586202e-001 -8.294235e-001
    outer loop
      vertex  2.500000e+002 -1.190854e+002  4.241835e+002
      vertex -2.500000e+002 -1.276058e+002  4.184450e+002
      vertex -2.500000e+002 -1.190854e+002  4.241835e+002
    endloop
  endfacet
  facet normal  0.000000e+000  4.312155e-001 -9.022490e-001
    outer loop
      vertex  2.500000e+002 -1.190854e+002  4.241835e+002
      vertex -2.500000e+002 -1.190854e+002  4.241835e+002
      vertex  2.500000e+002 -1.098170e+002  4.286132e+002
    endloop
  endfacet
  facet normal  0.000000e+000  4.312155e-001 -9.022490e-001
    outer loop
      vertex  2.500000e+002 -1.098170e+002  4.286132e+002
      vertex -2.500000e+002 -1.190854e+002  4.241835e+002
      vertex -2.500000e+002 -1.098170e+002  4.286132e+002
    endloop
  endfacet
  facet normal  0.000000e+000  1.510905e-001 -9.885199e-001
    outer loop
      vertex  2.000000e+002 -1.000000e+002  4.316387e+002
      vertex -2.000000e+002 -1.000000e+002  4.316387e+002
      vertex  2.000000e+002 -8.979061e+001  4.331992e+002
    endloop
  endfacet
  facet normal  0.000000e+000  1.510905e-001 -9.885199e-001
    outer loop
      vertex  2.000000e+002 -8.979061e+001  4.331992e+002
      vertex -2.000000e+002 -1.000000e+002  4.316387e+002
      vertex -2.000000e+002 -8.979061e+001  4.331992e+002
    endloop
  endfacet
  facet normal  0.000000e+000  3.997912e-003 -9.999921e-001
    outer loop
      vertex  2.000000e+002 -8.979061e+001  4.331992e+002
      vertex -2.000000e+002 -8.979061e+001  4.331992e+002
      vertex  2.000000e+002 -7.946273e+001  4.332404e+002
    endloop
  endfacet
  facet normal  0.000000e+000  3.997912e-003 -9.999921e-001
    outer loop
      vertex  2.000000e+002 -7.946273e+001  4.332404e+002
      vertex -2.000000e+002 -8.979061e+001  4.331992e+002
      vertex -2.000000e+002 -7.946273e+001  4.332404e+002
    endloop
  endfacet
  facet normal  0.000000e+000 -1.431832e-001 -9.896961e-001
    outer loop
      vertex  2.000000e+002 -7.946273e+001  4.332404e+002
      vertex -2.000000e+002 -7.946273e+001  4.332404e+002
      vertex  2.000000e+002 -6.924119e+001  4.317617e+002
    endloop
  endfacet
  facet normal  -0.000000e+000 -1.431832e-001 -9.896961e-001
    outer loop
      vertex  2.000000e+002 -6.924119e+001  4.317617e+002
      vertex -2.000000e+002 -7.946273e+001  4.332404e+002
      vertex -2.000000e+002 -6.924119e+001  4.317617e+002
    endloop
  endfacet
  facet normal  0.000000e+000 -2.872527e-001 -9.578549e-001
    outer loop
      vertex  2.000000e+002 -6.924119e+001  4.317617e+002
      vertex -2.000000e+002 -6.924119e+001  4.317617e+002
      vertex  2.000000e+002 -5.934850e+001  4.287949e+002
    endloop
  endfacet
  facet normal  -0.000000e+000 -2.872527e-001 -9.578549e-001
    outer loop
      vertex  2.000000e+002 -5.934850e+001  4.287949e+002
      vertex -2.000000e+002 -6.924119e+001  4.317617e+002
      vertex -2.000000e+002 -5.934850e+001  4.287949e+002
    endloop
  endfacet
  facet normal  0.000000e+000 -4.250614e-001 -9.051644e-001
    outer loop
      vertex  2.000000e+002 -5.934850e+001  4.287949e+002
      vertex -2.000000e+002 -5.934850e+001  4.287949e+002
      vertex  2.000000e+002 -5.000000e+001  4.244049e+002
    endloop
  endfacet
  facet normal  -0.000000e+000 -4.250614e-001 -9.051644e-001
    outer loop
      vertex  2.000000e+002 -5.000000e+001  4.244049e+002
      vertex -2.000000e+002 -5.934850e+001  4.287949e+002
      vertex -2.000000e+002 -5.000000e+001  4.244049e+002
    endloop
  endfacet
  facet normal -1.000000e+000  0.000000e+000  0.000000e+000
    outer loop
      vertex  2.000000e+002 -8.979061e+001  4.331992e+002
      vertex  2.000000e+002 -7.946273e+001  4.332404e+002
      vertex  2.000000e+002 -1.000000e+002  4.316387e+002
    endloop
  endfacet
  facet normal -9.999999e-001  0.000000e+000  0.000000e+000
    outer loop
      vertex  2.000000e+002 -1.000000e+002  4.316387e+002
      vertex  2.000000e+002 -7.946273e+001  4.332404e+002
      vertex  2.000000e+002 -6.924119e+001  4.317617e+002
    endloop
  endfacet
  facet normal -1.000000e+000  0.000000e+000  -0.000000e+000
    outer loop
      vertex  2.000000e+002 -1.000000e+002  4.316387e+002
      vertex  2.000000e+002 -6.924119e+001  4.317617e+002
      vertex  2.000000e+002 -5.000000e+001  4.244049e+002
    endloop
  endfacet
  facet normal -9.999999e-001  0.000000e+000  0.000000e+000
    outer loop
      vertex  2.000000e+002 -5.000000e+001  4.244049e+002
      vertex  2.000000e+002 -6.924119e+001  4.317617e+002
      vertex  2.000000e+002 -5.934850e+001  4.287949e+002
    endloop
  endfacet
  facet normal -1.000000e+000  0.000000e+000  0.000000e+000
    outer loop
      vertex  2.000000e+002 -5.000000e+001  0.000000e+000
      vertex  2.000000e+002 -1.000000e+002  0.000000e+000
      vertex  2.000000e+002 -5.000000e+001  4.244049e+002
    endloop
  endfacet
  facet normal -1.000000e+000  -0.000000e+000  0.000000e+000
    outer loop
      vertex  2.000000e+002 -5.000000e+001  4.244049e+002
      vertex  2.000000e+002 -1.000000e+002  0.000000e+000
      vertex  2.000000e+002 -1.000000e+002  4.316387e+002
    endloop
  endfacet
  facet normal  1.000000e+000  0.000000e+000  -0.000000e+000
    outer loop
      vertex -2.000000e+002 -1.000000e+002  0.000000e+000
      vertex -2.000000e+002 -5.000000e+001  0.000000e+000
      vertex -2.000000e+002 -5.000000e+001  4.244049e+002
    endloop
  endfacet
  facet normal  1.000000e+000  0.000000e+000  0.000000e+000
    outer loop
      vertex -2.000000e+002 -1.000000e+002  0.000000e+000
      vertex -2.000000e+002 -5.000000e+001  4.244049e+002
      vertex -2.000000e+002 -5.934850e+001  4.287949e+002
    endloop
  endfacet
  facet normal  1.000000e+000  0.000000e+000  0.000000e+000
    outer loop
      vertex -2.000000e+002 -1.000000e+002  0.000000e+000
      vertex -2.000000e+002 -5.934850e+001  4.287949e+002
      vertex -2.000000e+002 -6.924119e+001  4.317617e+002
    endloop
  endfacet
  facet normal  1.000000e+000  0.000000e+000  0.000000e+000
    outer loop
      vertex -2.000000e+002 -1.000000e+002  0.000000e+000
      vertex -2.000000e+002 -6.924119e+001  4.317617e+002
      vertex -2.000000e+002 -7.946273e+001  4.332404e+002
    endloop
  endfacet
  facet normal  1.000000e+000  0.000000e+000  0.000000e+000
    outer loop
      vertex -2.000000e+002 -1.000000e+002  0.000000e+000
      vertex -2.000000e+002 -7.946273e+001  4.332404e+002
      vertex -2.000000e+002 -8.979061e+001  4.331992e+002
    endloop
  endfacet
  facet normal  1.000000e+000  0.000000e+000  0.000000e+000
    outer loop
      vertex -2.000000e+002 -1.000000e+002  0.000000e+000
      vertex -2.000000e+002 -8.979061e+001  4.331992e+002
      vertex -2.000000e+002 -1.000000e+002  4.316387e+002
    endloop
  endfacet
  facet normal  0.000000e+000  0.000000e+000 -1.000000e+000
    outer loop
      vertex  2.500000e+002 -1.000000e+002  0.000000e+000
      vertex  2.000000e+002 -1.000000e+002  0.000000e+000
      vertex  2.500000e+002 -5.000000e+001  0.000000e+000
    endloop
  endfacet
  facet normal  -0.000000e+000  0.000000e+000 -1.000000e+000
    outer loop
      vertex  2.500000e+002 -5.000000e+001  0.000000e+000
      vertex  2.000000e+002 -1.000000e+002  0.000000e+000
      vertex  2.000000e+002 -5.000000e+001  0.000000e+000
    endloop
  endfacet
  facet normal  0.000000e+000  0.000000e+000 -1.000000e+000
    outer loop
      vertex -2.000000e+002 -1.000000e+002  0.000000e+000
      vertex -2.500000e+002 -1.000000e+002  0.000000e+000
      vertex -2.000000e+002 -5.000000e+001  0.000000e+000
    endloop
  endfacet
  facet normal  -0.000000e+000  0.000000e+000 -1.000000e+000
    outer loop
      vertex -2.000000e+002 -5.000000e+001  0.000000e+000
      vertex -2.500000e+002 -1.000000e+002  0.000000e+000
      vertex -2.500000e+002 -5.000000e+001  0.000000e+000
    endloop
  endfacet
  facet normal  0.000000e+000  0.000000e+000 -1.000000e+000
    outer loop
      vertex  2.500000e+002  6.000000e+002  0.000000e+000
      vertex  2.000000e+002  6.000000e+002  0.000000e+000
      vertex  2.500000e+002  6.500000e+002  0.000000e+000
    endloop
  endfacet
  facet normal  -0.000000e+000  0.000000e+000 -1.000000e+000
    outer loop
      vertex  2.500000e+002  6.500000e+002  0.000000e+000
      vertex  2.000000e+002  6.000000e+002  0.000000e+000
      vertex  2.000000e+002  6.500000e+002  0.000000e+000
    endloop
  endfacet
  facet normal  0.000000e+000  1.000000e+000  0.000000e+000
    outer loop
      vertex  2.500000e+002  6.500000e+002  0.000000e+000
      vertex  2.000000e+002  6.500000e+002  0.000000e+000
      vertex  2.500000e+002  6.500000e+002  4.680000e+002
    endloop
  endfacet
  facet normal  0.000000e+000  1.000000e+000  0.000000e+000
    outer loop
      vertex  2.500000e+002  6.500000e+002  4.680000e+002
      vertex  2.000000e+002  6.500000e+002  0.000000e+000
      vertex  2.000000e+002  6.500000e+002  4.680000e+002
    endloop
  endfacet
  facet normal  0.000000e+000 -1.000000e+000  0.000000e+000
    outer loop
      vertex  2.000000e+002  6.000000e+002  0.000000e+000
      vertex  2.500000e+002  6.000000e+002  0.000000e+000
      vertex  2.000000e+002  6.000000e+002  4.337789e+002
    endloop
  endfacet
  facet normal  0.000000e+000 -1.000000e+000  0.000000e+000
    outer loop
      vertex  2.000000e+002  6.000000e+002  4.337789e+002
      vertex  2.500000e+002  6.000000e+002  0.000000e+000
      vertex  2.500000e+002  6.000000e+002  4.337789e+002
    endloop
  endfacet
  facet normal  0.000000e+000  0.000000e+000  1.000000e+000
    outer loop
      vertex  2.000000e+002  6.342211e+002  4.680000e+002
      vertex  2.500000e+002  6.342211e+002  4.680000e+002
      vertex  2.000000e+002  6.500000e+002  4.680000e+002
    endloop
  endfacet
  facet normal  -0.000000e+000  0.000000e+000  1.000000e+000
    outer loop
      vertex  2.000000e+002  6.500000e+002  4.680000e+002
      vertex  2.500000e+002  6.342211e+002  4.680000e+002
      vertex  2.500000e+002  6.500000e+002  4.680000e+002
    endloop
  endfacet
  facet normal -1.000000e+000  0.000000e+000  0.000000e+000
    outer loop
      vertex  2.000000e+002  6.500000e+002  0.000000e+000
      vertex  2.000000e+002  6.000000e+002  0.000000e+000
      vertex  2.000000e+002  6.500000e+002  4.680000e+002
    endloop
  endfacet
  facet normal -1.000000e+000  0.000000e+000  0.000000e+000
    outer loop
      vertex  2.000000e+002  6.500000e+002  4.680000e+002
      vertex  2.000000e+002  6.000000e+002  0.000000e+000
      vertex  2.000000e+002  6.000000e+002  4.337789e+002
    endloop
  endfacet
  facet normal -1.000000e+000  0.000000e+000  0.000000e+000
    outer loop
      vertex  2.000000e+002  6.500000e+002  4.680000e+002
      vertex  2.000000e+002  6.000000e+002  4.337789e+002
      vertex  2.000000e+002  6.342211e+002  4.680000e+002
    endloop
  endfacet
  facet normal  0.000000e+000  7.071068e-001 -7.071068e-001
    outer loop
      vertex -2.500000e+002  4.000000e+002  2.337789e+002
      vertex -2.500000e+002  6.000000e+002  4.337789e+002
      vertex -2.000000e+002  6.000000e+002  4.337789e+002
    endloop
  endfacet
  facet normal  0.000000e+000  7.071068e-001 -7.071068e-001
    outer loop
      vertex -2.500000e+002  4.000000e+002  2.337789e+002
      vertex -2.000000e+002  6.000000e+002  4.337789e+002
      vertex  2.000000e+002  6.000000e+002  4.337789e+002
    endloop
  endfacet
  facet normal  0.000000e+000  7.071068e-001 -7.071068e-001
    outer loop
      vertex -2.500000e+002  4.000000e+002  2.337789e+002
      vertex  2.000000e+002  6.000000e+002  4.337789e+002
      vertex  2.500000e+002  6.000000e+002  4.337789e+002
    endloop
  endfacet
  facet normal  0.000000e+000  7.071068e-001 -7.071068e-001
    outer loop
      vertex -2.500000e+002  4.000000e+002  2.337789e+002
      vertex  2.500000e+002  6.000000e+002  4.337789e+002
      vertex  2.500000e+002  4.000000e+002  2.337789e+002
    endloop
  endfacet
  facet normal  0.000000e+000  7.071068e-001 -7.071068e-001
    outer loop
      vertex  2.500000e+002  8.242641e+002  6.580430e+002
      vertex  2.500000e+002  6.342211e+002  4.680000e+002
      vertex  2.000000e+002  6.342211e+002  4.680000e+002
    endloop
  endfacet
  facet normal  0.000000e+000  7.071068e-001 -7.071068e-001
    outer loop
      vertex  2.500000e+002  8.242641e+002  6.580430e+002
      vertex  2.000000e+002  6.342211e+002  4.680000e+002
      vertex -2.000000e+002  6.342211e+002  4.680000e+002
    endloop
  endfacet
  facet normal  0.000000e+000  7.071068e-001 -7.071068e-001
    outer loop
      vertex  2.500000e+002  8.242641e+002  6.580430e+002
      vertex -2.000000e+002  6.342211e+002  4.680000e+002
      vertex -2.500000e+002  6.342211e+002  4.680000e+002
    endloop
  endfacet
  facet normal  0.000000e+000  7.071068e-001 -7.071068e-001
    outer loop
      vertex  2.500000e+002  8.242641e+002  6.580430e+002
      vertex -2.500000e+002  6.342211e+002  4.680000e+002
      vertex -2.500000e+002  8.242641e+002  6.580430e+002
    endloop
  endfacet
  facet normal  0.000000e+000  7.071068e-001 -7.071068e-001
    outer loop
      vertex -2.000000e+002  6.342211e+002  4.680000e+002
      vertex  2.000000e+002  6.342211e+002  4.680000e+002
      vertex -2.000000e+002  6.000000e+002  4.337789e+002
    endloop
  endfacet
  facet normal  0.000000e+000  7.071068e-001 -7.071068e-001
    outer loop
      vertex -2.000000e+002  6.000000e+002  4.337789e+002
      vertex  2.000000e+002  6.342211e+002  4.680000e+002
      vertex  2.000000e+002  6.000000e+002  4.337789e+002
    endloop
  endfacet
  facet normal  0.000000e+000 -1.000000e+000  0.000000e+000
    outer loop
      vertex -2.500000e+002  6.000000e+002  0.000000e+000
      vertex -2.000000e+002  6.000000e+002  0.000000e+000
      vertex -2.500000e+002  6.000000e+002  4.337789e+002
    endloop
  endfacet
  facet normal  0.000000e+000 -1.000000e+000  0.000000e+000
    outer loop
      vertex -2.500000e+002  6.000000e+002  4.337789e+002
      vertex -2.000000e+002  6.000000e+002  0.000000e+000
      vertex -2.000000e+002  6.000000e+002  4.337789e+002
    endloop
  endfacet
  facet normal  0.000000e+000  0.000000e+000  1.000000e+000
    outer loop
      vertex -2.500000e+002  6.342211e+002  4.680000e+002
      vertex -2.000000e+002  6.342211e+002  4.680000e+002
      vertex -2.500000e+002  6.500000e+002  4.680000e+002
    endloop
  endfacet
  facet normal  -0.000000e+000  0.000000e+000  1.000000e+000
    outer loop
      vertex -2.500000e+002  6.500000e+002  4.680000e+002
      vertex -2.000000e+002  6.342211e+002  4.680000e+002
      vertex -2.000000e+002  6.500000e+002  4.680000e+002
    endloop
  endfacet
  facet normal  1.000000e+000  0.000000e+000  0.000000e+000
    outer loop
      vertex -2.000000e+002  6.000000e+002  0.000000e+000
      vertex -2.000000e+002  6.500000e+002  0.000000e+000
      vertex -2.000000e+002  6.000000e+002  4.337789e+002
    endloop
  endfacet
  facet normal  1.000000e+000  -0.000000e+000  0.000000e+000
    outer loop
      vertex -2.000000e+002  6.000000e+002  4.337789e+002
      vertex -2.000000e+002  6.500000e+002  0.000000e+000
      vertex -2.000000e+002  6.500000e+002  4.680000e+002
    endloop
  endfacet
  facet normal  1.000000e+000  0.000000e+000  0.000000e+000
    outer loop
      vertex -2.000000e+002  6.000000e+002  4.337789e+002
      vertex -2.000000e+002  6.500000e+002  4.680000e+002
      vertex -2.000000e+002  6.342211e+002  4.680000e+002
    endloop
  endfacet
  facet normal  0.000000e+000  0.000000e+000 -1.000000e+000
    outer loop
      vertex -2.000000e+002  6.000000e+002  0.000000e+000
      vertex -2.500000e+002  6.000000e+002  0.000000e+000
      vertex -2.000000e+002  6.500000e+002  0.000000e+000
    endloop
  endfacet
  facet normal  -0.000000e+000  0.000000e+000 -1.000000e+000
    outer loop
      vertex -2.000000e+002  6.500000e+002  0.000000e+000
      vertex -2.500000e+002  6.000000e+002  0.000000e+000
      vertex -2.500000e+002  6.500000e+002  0.000000e+000
    endloop
  endfacet
  facet normal  0.000000e+000  1.000000e+000  0.000000e+000
    outer loop
      vertex -2.000000e+002  6.500000e+002  0.000000e+000
      vertex -2.500000e+002  6.500000e+002  0.000000e+000
      vertex -2.000000e+002  6.500000e+002  4.680000e+002
    endloop
  endfacet
  facet normal  0.000000e+000  1.000000e+000  0.000000e+000
    outer loop
      vertex -2.000000e+002  6.500000e+002  4.680000e+002
      vertex -2.500000e+002  6.500000e+002  0.000000e+000
      vertex -2.500000e+002  6.500000e+002  4.680000e+002
    endloop
  endfacet
  facet normal  0.000000e+000 -8.191520e-001  5.735765e-001
    outer loop
      vertex -2.500000e+002 -1.602297e+002  4.206677e+002
      vertex -2.500000e+002 -3.342400e+002  1.721553e+002
      vertex  2.500000e+002 -1.602297e+002  4.206677e+002
    endloop
  endfacet
  facet normal  0.000000e+000 -8.191520e-001  5.735765e-001
    outer loop
      vertex  2.500000e+002 -1.602297e+002  4.206677e+002
      vertex -2.500000e+002 -3.342400e+002  1.721553e+002
      vertex  2.500000e+002 -3.342400e+002  1.721553e+002
    endloop
  endfacet
  facet normal  0.000000e+000 -7.798849e-001  6.259229e-001
    outer loop
      vertex -2.500000e+002 -1.602297e+002  4.206677e+002
      vertex  2.500000e+002 -1.602297e+002  4.206677e+002
      vertex -2.500000e+002 -1.527281e+002  4.300144e+002
    endloop
  endfacet
  facet normal  0.000000e+000 -7.798849e-001  6.259229e-001
    outer loop
      vertex -2.500000e+002 -1.527281e+002  4.300144e+002
      vertex  2.500000e+002 -1.602297e+002  4.206677e+002
      vertex  2.500000e+002 -1.527281e+002  4.300144e+002
    endloop
  endfacet
  facet normal  0.000000e+000 -6.915126e-001  7.223644e-001
    outer loop
      vertex -2.500000e+002 -1.527281e+002  4.300144e+002
      vertex  2.500000e+002 -1.527281e+002  4.300144e+002
      vertex -2.500000e+002 -1.440708e+002  4.383021e+002
    endloop
  endfacet
  facet normal  0.000000e+000 -6.915126e-001  7.223644e-001
    outer loop
      vertex -2.500000e+002 -1.440708e+002  4.383021e+002
      vertex  2.500000e+002 -1.527281e+002  4.300144e+002
      vertex  2.500000e+002 -1.440708e+002  4.383021e+002
    endloop
  endfacet
  facet normal  0.000000e+000 -5.913091e-001  8.064451e-001
    outer loop
      vertex -2.500000e+002 -1.440708e+002  4.383021e+002
      vertex  2.500000e+002 -1.440708e+002  4.383021e+002
      vertex -2.500000e+002 -1.344057e+002  4.453888e+002
    endloop
  endfacet
  facet normal  0.000000e+000 -5.913091e-001  8.064451e-001
    outer loop
      vertex -2.500000e+002 -1.344057e+002  4.453888e+002
      vertex  2.500000e+002 -1.440708e+002  4.383021e+002
      vertex  2.500000e+002 -1.344057e+002  4.453888e+002
    endloop
  endfacet
  facet normal  0.000000e+000 -4.809898e-001  8.767262e-001
    outer loop
      vertex -2.500000e+002 -1.344057e+002  4.453888e+002
      vertex  2.500000e+002 -1.344057e+002  4.453888e+002
      vertex -2.500000e+002 -1.238983e+002  4.511533e+002
    endloop
  endfacet
  facet normal  0.000000e+000 -4.809898e-001  8.767262e-001
    outer loop
      vertex -2.500000e+002 -1.238983e+002  4.511533e+002
      vertex  2.500000e+002 -1.344057e+002  4.453888e+002
      vertex  2.500000e+002 -1.238983e+002  4.511533e+002
    endloop
  endfacet
  facet normal  0.000000e+000 -3.624367e-001  9.320084e-001
    outer loop
      vertex -2.500000e+002 -1.238983e+002  4.511533e+002
      vertex  2.500000e+002 -1.238983e+002  4.511533e+002
      vertex -2.500000e+002 -1.127284e+002  4.554970e+002
    endloop
  endfacet
  facet normal  0.000000e+000 -3.624367e-001  9.320084e-001
    outer loop
      vertex -2.500000e+002 -1.127284e+002  4.554970e+002
      vertex  2.500000e+002 -1.238983e+002  4.511533e+002
      vertex  2.500000e+002 -1.127284e+002  4.554970e+002
    endloop
  endfacet
  facet normal  0.000000e+000 -2.376875e-001  9.713417e-001
    outer loop
      vertex -2.500000e+002 -1.127284e+002  4.554970e+002
      vertex  2.500000e+002 -1.127284e+002  4.554970e+002
      vertex -2.500000e+002 -1.010871e+002  4.583457e+002
    endloop
  endfacet
  facet normal  0.000000e+000 -2.376875e-001  9.713417e-001
    outer loop
      vertex -2.500000e+002 -1.010871e+002  4.583457e+002
      vertex  2.500000e+002 -1.127284e+002  4.554970e+002
      vertex  2.500000e+002 -1.010871e+002  4.583457e+002
    endloop
  endfacet
  facet normal  0.000000e+000 -1.088672e-001  9.940563e-001
    outer loop
      vertex -2.500000e+002 -1.010871e+002  4.583457e+002
      vertex  2.500000e+002 -1.010871e+002  4.583457e+002
      vertex -2.500000e+002 -8.917358e+001  4.596504e+002
    endloop
  endfacet
  facet normal  0.000000e+000 -1.088672e-001  9.940563e-001
    outer loop
      vertex -2.500000e+002 -8.917358e+001  4.596504e+002
      vertex  2.500000e+002 -1.010871e+002  4.583457e+002
      vertex  2.500000e+002 -8.917358e+001  4.596504e+002
    endloop
  endfacet
  facet normal  0.000000e+000  2.181468e-002  9.997621e-001
    outer loop
      vertex -2.500000e+002 -8.917358e+001  4.596504e+002
      vertex  2.500000e+002 -8.917358e+001  4.596504e+002
      vertex -2.500000e+002 -7.719166e+001  4.593890e+002
    endloop
  endfacet
  facet normal  -0.000000e+000  2.181468e-002  9.997621e-001
    outer loop
      vertex -2.500000e+002 -7.719166e+001  4.593890e+002
      vertex  2.500000e+002 -8.917358e+001  4.596504e+002
      vertex  2.500000e+002 -7.719166e+001  4.593890e+002
    endloop
  endfacet
  facet normal  0.000000e+000  1.521247e-001  9.883613e-001
    outer loop
      vertex -2.500000e+002 -7.719166e+001  4.593890e+002
      vertex  2.500000e+002 -7.719166e+001  4.593890e+002
      vertex -2.500000e+002 -6.534637e+001  4.575658e+002
    endloop
  endfacet
  facet normal  -0.000000e+000  1.521247e-001  9.883613e-001
    outer loop
      vertex -2.500000e+002 -6.534637e+001  4.575658e+002
      vertex  2.500000e+002 -7.719166e+001  4.593890e+002
      vertex  2.500000e+002 -6.534637e+001  4.575658e+002
    endloop
  endfacet
  facet normal  0.000000e+000  2.798299e-001  9.600496e-001
    outer loop
      vertex -2.500000e+002 -6.534637e+001  4.575658e+002
      vertex  2.500000e+002 -6.534637e+001  4.575658e+002
      vertex -2.500000e+002 -5.384039e+001  4.542121e+002
    endloop
  endfacet
  facet normal  -0.000000e+000  2.798299e-001  9.600496e-001
    outer loop
      vertex -2.500000e+002 -5.384039e+001  4.542121e+002
      vertex  2.500000e+002 -6.534637e+001  4.575658e+002
      vertex  2.500000e+002 -5.384039e+001  4.542121e+002
    endloop
  endfacet
  facet normal  0.000000e+000  4.027456e-001  9.153120e-001
    outer loop
      vertex -2.500000e+002 -5.384039e+001  4.542121e+002
      vertex  2.500000e+002 -5.384039e+001  4.542121e+002
      vertex -2.500000e+002 -4.287058e+001  4.493853e+002
    endloop
  endfacet
  facet normal  -0.000000e+000  4.027456e-001  9.153120e-001
    outer loop
      vertex -2.500000e+002 -4.287058e+001  4.493853e+002
      vertex  2.500000e+002 -5.384039e+001  4.542121e+002
      vertex  2.500000e+002 -4.287058e+001  4.493853e+002
    endloop
  endfacet
  facet normal  0.000000e+000  5.187730e-001  8.549120e-001
    outer loop
      vertex -2.500000e+002 -4.287058e+001  4.493853e+002
      vertex  2.500000e+002 -4.287058e+001  4.493853e+002
      vertex -2.500000e+002 -3.262466e+001  4.431679e+002
    endloop
  endfacet
  facet normal  -0.000000e+000  5.187730e-001  8.549120e-001
    outer loop
      vertex -2.500000e+002 -3.262466e+001  4.431679e+002
      vertex  2.500000e+002 -4.287058e+001  4.493853e+002
      vertex  2.500000e+002 -3.262466e+001  4.431679e+002
    endloop
  endfacet
  facet normal  0.000000e+000  5.735765e-001  8.191521e-001
    outer loop
      vertex -2.500000e+002  2.540786e+002  2.424162e+002
      vertex -2.500000e+002 -3.262466e+001  4.431679e+002
      vertex  2.500000e+002  2.540786e+002  2.424162e+002
    endloop
  endfacet
  facet normal  0.000000e+000  5.735765e-001  8.191521e-001
    outer loop
      vertex  2.500000e+002  2.540786e+002  2.424162e+002
      vertex -2.500000e+002 -3.262466e+001  4.431679e+002
      vertex  2.500000e+002 -3.262466e+001  4.431679e+002
    endloop
  endfacet
  facet normal  0.000000e+000 -6.647957e-001  7.470251e-001
    outer loop
      vertex  2.500000e+002  3.852993e+002  2.538965e+002
      vertex -2.500000e+002  3.852993e+002  2.538965e+002
      vertex  2.500000e+002  3.763983e+002  2.459753e+002
    endloop
  endfacet
  facet normal  0.000000e+000 -6.647957e-001  7.470251e-001
    outer loop
      vertex  2.500000e+002  3.763983e+002  2.459753e+002
      vertex -2.500000e+002  3.852993e+002  2.538965e+002
      vertex -2.500000e+002  3.763983e+002  2.459753e+002
    endloop
  endfacet
  facet normal  0.000000e+000 -5.735765e-001  8.191521e-001
    outer loop
      vertex  2.500000e+002  3.763983e+002  2.459753e+002
      vertex -2.500000e+002  3.763983e+002  2.459753e+002
      vertex  2.500000e+002  3.666380e+002  2.391410e+002
    endloop
  endfacet
  facet normal  0.000000e+000 -5.735765e-001  8.191521e-001
    outer loop
      vertex  2.500000e+002  3.666380e+002  2.391410e+002
      vertex -2.500000e+002  3.763983e+002  2.459753e+002
      vertex -2.500000e+002  3.666380e+002  2.391410e+002
    endloop
  endfacet
  facet normal  0.000000e+000 -4.746015e-001  8.802008e-001
    outer loop
      vertex  2.500000e+002  3.666380e+002  2.391410e+002
      vertex -2.500000e+002  3.666380e+002  2.391410e+002
      vertex  2.500000e+002  3.561502e+002  2.334860e+002
    endloop
  endfacet
  facet normal  0.000000e+000 -4.746015e-001  8.802008e-001
    outer loop
      vertex  2.500000e+002  3.561502e+002  2.334860e+002
      vertex -2.500000e+002  3.666380e+002  2.391410e+002
      vertex -2.500000e+002  3.561502e+002  2.334860e+002
    endloop
  endfacet
  facet normal  0.000000e+000 -3.692055e-001  9.293478e-001
    outer loop
      vertex  2.500000e+002  3.561502e+002  2.334860e+002
      vertex -2.500000e+002  3.561502e+002  2.334860e+002
      vertex  2.500000e+002  3.450768e+002  2.290869e+002
    endloop
  endfacet
  facet normal  0.000000e+000 -3.692055e-001  9.293478e-001
    outer loop
      vertex  2.500000e+002  3.450768e+002  2.290869e+002
      vertex -2.500000e+002  3.561502e+002  2.334860e+002
      vertex -2.500000e+002  3.450768e+002  2.290869e+002
    endloop
  endfacet
  facet normal  0.000000e+000 -2.588196e-001  9.659256e-001
    outer loop
      vertex  2.500000e+002  3.450768e+002  2.290869e+002
      vertex -2.500000e+002  3.450768e+002  2.290869e+002
      vertex  2.500000e+002  3.335676e+002  2.260030e+002
    endloop
  endfacet
  facet normal  0.000000e+000 -2.588196e-001  9.659256e-001
    outer loop
      vertex  2.500000e+002  3.335676e+002  2.260030e+002
      vertex -2.500000e+002  3.450768e+002  2.290869e+002
      vertex -2.500000e+002  3.335676e+002  2.260030e+002
    endloop
  endfacet
  facet normal  0.000000e+000 -1.449311e-001  9.894417e-001
    outer loop
      vertex  2.500000e+002  3.335676e+002  2.260030e+002
      vertex -2.500000e+002  3.335676e+002  2.260030e+002
      vertex  2.500000e+002  3.217782e+002  2.242761e+002
    endloop
  endfacet
  facet normal  0.000000e+000 -1.449311e-001  9.894417e-001
    outer loop
      vertex  2.500000e+002  3.217782e+002  2.242761e+002
      vertex -2.500000e+002  3.335676e+002  2.260030e+002
      vertex -2.500000e+002  3.217782e+002  2.242761e+002
    endloop
  endfacet
  facet normal  0.000000e+000 -2.908527e-002  9.995769e-001
    outer loop
      vertex  2.500000e+002  3.217782e+002  2.242761e+002
      vertex -2.500000e+002  3.217782e+002  2.242761e+002
      vertex  2.500000e+002  3.098680e+002  2.239295e+002
    endloop
  endfacet
  facet normal  0.000000e+000 -2.908527e-002  9.995769e-001
    outer loop
      vertex  2.500000e+002  3.098680e+002  2.239295e+002
      vertex -2.500000e+002  3.217782e+002  2.242761e+002
      vertex -2.500000e+002  3.098680e+002  2.239295e+002
    endloop
  endfacet
  facet normal  -0.000000e+000  8.715602e-002  9.961946e-001
    outer loop
      vertex  2.500000e+002  3.098680e+002  2.239295e+002
      vertex -2.500000e+002  3.098680e+002  2.239295e+002
      vertex  2.500000e+002  2.979981e+002  2.249680e+002
    endloop
  endfacet
  facet normal  0.000000e+000  8.715602e-002  9.961946e-001
    outer loop
      vertex  2.500000e+002  2.979981e+002  2.249680e+002
      vertex -2.500000e+002  3.098680e+002  2.239295e+002
      vertex -2.500000e+002  2.979981e+002  2.249680e+002
    endloop
  endfacet
  facet normal  -0.000000e+000  2.022177e-001  9.793407e-001
    outer loop
      vertex  2.500000e+002  2.979981e+002  2.249680e+002
      vertex -2.500000e+002  2.979981e+002  2.249680e+002
      vertex  2.500000e+002  2.863291e+002  2.273775e+002
    endloop
  endfacet
  facet normal  0.000000e+000  2.022177e-001  9.793407e-001
    outer loop
      vertex  2.500000e+002  2.863291e+002  2.273775e+002
      vertex -2.500000e+002  2.979981e+002  2.249680e+002
      vertex -2.500000e+002  2.863291e+002  2.273775e+002
    endloop
  endfacet
  facet normal  -0.000000e+000  3.145446e-001  9.492428e-001
    outer loop
      vertex  2.500000e+002  2.863291e+002  2.273775e+002
      vertex -2.500000e+002  2.863291e+002  2.273775e+002
      vertex  2.500000e+002  2.750186e+002  2.311254e+002
    endloop
  endfacet
  facet normal  0.000000e+000  3.145446e-001  9.492428e-001
    outer loop
      vertex  2.500000e+002  2.750186e+002  2.311254e+002
      vertex -2.500000e+002  2.863291e+002  2.273775e+002
      vertex -2.500000e+002  2.750186e+002  2.311254e+002
    endloop
  endfacet
  facet normal  -0.000000e+000  4.226178e-001  9.063080e-001
    outer loop
      vertex  2.500000e+002  2.750186e+002  2.311254e+002
      vertex -2.500000e+002  2.750186e+002  2.311254e+002
      vertex  2.500000e+002  2.642198e+002  2.361609e+002
    endloop
  endfacet
  facet normal  0.000000e+000  4.226178e-001  9.063080e-001
    outer loop
      vertex  2.500000e+002  2.642198e+002  2.361609e+002
      vertex -2.500000e+002  2.750186e+002  2.311254e+002
      vertex -2.500000e+002  2.642198e+002  2.361609e+002
    endloop
  endfacet
  facet normal  -0.000000e+000  5.249773e-001  8.511162e-001
    outer loop
      vertex  2.500000e+002  2.642198e+002  2.361609e+002
      vertex -2.500000e+002  2.642198e+002  2.361609e+002
      vertex  2.500000e+002  2.540786e+002  2.424162e+002
    endloop
  endfacet
  facet normal  0.000000e+000  5.249773e-001  8.511162e-001
    outer loop
      vertex  2.500000e+002  2.540786e+002  2.424162e+002
      vertex -2.500000e+002  2.642198e+002  2.361609e+002
      vertex -2.500000e+002  2.540786e+002  2.424162e+002
    endloop
  endfacet
  facet normal  0.000000e+000 -7.071067e-001  7.071067e-001
    outer loop
      vertex -2.500000e+002  3.852993e+002  2.538965e+002
      vertex  2.500000e+002  3.852993e+002  2.538965e+002
      vertex -2.500000e+002  8.037853e+002  6.723824e+002
    endloop
  endfacet
  facet normal  0.000000e+000 -7.071067e-001  7.071067e-001
    outer loop
      vertex -2.500000e+002  8.037853e+002  6.723824e+002
      vertex  2.500000e+002  3.852993e+002  2.538965e+002
      vertex  2.500000e+002  8.037853e+002  6.723824e+002
    endloop
  endfacet
  facet normal  0.000000e+000  5.735762e-001  8.191522e-001
    outer loop
      vertex -2.500000e+002  8.242641e+002  6.580430e+002
      vertex -2.500000e+002  8.037853e+002  6.723824e+002
      vertex  2.500000e+002  8.242641e+002  6.580430e+002
    endloop
  endfacet
  facet normal  0.000000e+000  5.735762e-001  8.191522e-001
    outer loop
      vertex  2.500000e+002  8.242641e+002  6.580430e+002
      vertex -2.500000e+002  8.037853e+002  6.723824e+002
      vertex  2.500000e+002  8.037853e+002  6.723824e+002
    endloop
  endfacet
  facet normal  0.000000e+000  6.681322e-001 -7.440426e-001
    outer loop
      vertex -2.500000e+002  4.000000e+002  2.337789e+002
      vertex  2.500000e+002  4.000000e+002  2.337789e+002
      vertex -2.500000e+002  3.901772e+002  2.249583e+002
    endloop
  endfacet
  facet normal  0.000000e+000  6.681322e-001 -7.440426e-001
    outer loop
      vertex -2.500000e+002  3.901772e+002  2.249583e+002
      vertex  2.500000e+002  4.000000e+002  2.337789e+002
      vertex  2.500000e+002  3.901772e+002  2.249583e+002
    endloop
  endfacet
  facet normal  0.000000e+000  5.845225e-001 -8.113775e-001
    outer loop
      vertex -2.500000e+002  3.901772e+002  2.249583e+002
      vertex  2.500000e+002  3.901772e+002  2.249583e+002
      vertex -2.500000e+002  3.794655e+002  2.172415e+002
    endloop
  endfacet
  facet normal  0.000000e+000  5.845225e-001 -8.113775e-001
    outer loop
      vertex -2.500000e+002  3.794655e+002  2.172415e+002
      vertex  2.500000e+002  3.901772e+002  2.249583e+002
      vertex  2.500000e+002  3.794655e+002  2.172415e+002
    endloop
  endfacet
  facet normal  0.000000e+000  4.941757e-001 -8.693620e-001
    outer loop
      vertex -2.500000e+002  3.794655e+002  2.172415e+002
      vertex  2.500000e+002  3.794655e+002  2.172415e+002
      vertex -2.500000e+002  3.679882e+002  2.107174e+002
    endloop
  endfacet
  facet normal  0.000000e+000  4.941757e-001 -8.693620e-001
    outer loop
      vertex -2.500000e+002  3.679882e+002  2.107174e+002
      vertex  2.500000e+002  3.794655e+002  2.172415e+002
      vertex  2.500000e+002  3.679882e+002  2.107174e+002
    endloop
  endfacet
  facet normal  0.000000e+000  3.981334e-001 -9.173275e-001
    outer loop
      vertex -2.500000e+002  3.679882e+002  2.107174e+002
      vertex  2.500000e+002  3.679882e+002  2.107174e+002
      vertex -2.500000e+002  3.558777e+002  2.054613e+002
    endloop
  endfacet
  facet normal  0.000000e+000  3.981334e-001 -9.173275e-001
    outer loop
      vertex -2.500000e+002  3.558777e+002  2.054613e+002
      vertex  2.500000e+002  3.679882e+002  2.107174e+002
      vertex  2.500000e+002  3.558777e+002  2.054613e+002
    endloop
  endfacet
  facet normal  0.000000e+000  2.975023e-001 -9.547211e-001
    outer loop
      vertex -2.500000e+002  3.558777e+002  2.054613e+002
      vertex  2.500000e+002  3.558777e+002  2.054613e+002
      vertex -2.500000e+002  3.432735e+002  2.015337e+002
    endloop
  endfacet
  facet normal  0.000000e+000  2.975023e-001 -9.547211e-001
    outer loop
      vertex -2.500000e+002  3.432735e+002  2.015337e+002
      vertex  2.500000e+002  3.558777e+002  2.054613e+002
      vertex  2.500000e+002  3.432735e+002  2.015337e+002
    endloop
  endfacet
  facet normal  0.000000e+000  1.934442e-001 -9.811113e-001
    outer loop
      vertex -2.500000e+002  3.432735e+002  2.015337e+002
      vertex  2.500000e+002  3.432735e+002  2.015337e+002
      vertex -2.500000e+002  3.303210e+002  1.989798e+002
    endloop
  endfacet
  facet normal  0.000000e+000  1.934442e-001 -9.811113e-001
    outer loop
      vertex -2.500000e+002  3.303210e+002  1.989798e+002
      vertex  2.500000e+002  3.432735e+002  2.015337e+002
      vertex  2.500000e+002  3.303210e+002  1.989798e+002
    endloop
  endfacet
  facet normal  0.000000e+000  8.715533e-002 -9.961947e-001
    outer loop
      vertex -2.500000e+002  3.303210e+002  1.989798e+002
      vertex  2.500000e+002  3.303210e+002  1.989798e+002
      vertex -2.500000e+002  3.171693e+002  1.978292e+002
    endloop
  endfacet
  facet normal  0.000000e+000  8.715533e-002 -9.961947e-001
    outer loop
      vertex -2.500000e+002  3.171693e+002  1.978292e+002
      vertex  2.500000e+002  3.303210e+002  1.989798e+002
      vertex  2.500000e+002  3.171693e+002  1.978292e+002
    endloop
  endfacet
  facet normal  -0.000000e+000 -2.013631e-002 -9.997972e-001
    outer loop
      vertex -2.500000e+002  3.171693e+002  1.978292e+002
      vertex  2.500000e+002  3.171693e+002  1.978292e+002
      vertex -2.500000e+002  3.039700e+002  1.980950e+002
    endloop
  endfacet
  facet normal  0.000000e+000 -2.013631e-002 -9.997972e-001
    outer loop
      vertex -2.500000e+002  3.039700e+002  1.980950e+002
      vertex  2.500000e+002  3.171693e+002  1.978292e+002
      vertex  2.500000e+002  3.039700e+002  1.980950e+002
    endloop
  endfacet
  facet normal  -0.000000e+000 -1.271981e-001 -9.918773e-001
    outer loop
      vertex -2.500000e+002  3.039700e+002  1.980950e+002
      vertex  2.500000e+002  3.039700e+002  1.980950e+002
      vertex -2.500000e+002  2.908753e+002  1.997743e+002
    endloop
  endfacet
  facet normal  0.000000e+000 -1.271981e-001 -9.918773e-001
    outer loop
      vertex -2.500000e+002  2.908753e+002  1.997743e+002
      vertex  2.500000e+002  3.039700e+002  1.980950e+002
      vertex  2.500000e+002  2.908753e+002  1.997743e+002
    endloop
  endfacet
  facet normal  -0.000000e+000 -2.327929e-001 -9.725263e-001
    outer loop
      vertex -2.500000e+002  2.908753e+002  1.997743e+002
      vertex  2.500000e+002  2.908753e+002  1.997743e+002
      vertex -2.500000e+002  2.780360e+002  2.028476e+002
    endloop
  endfacet
  facet normal  0.000000e+000 -2.327929e-001 -9.725263e-001
    outer loop
      vertex -2.500000e+002  2.780360e+002  2.028476e+002
      vertex  2.500000e+002  2.908753e+002  1.997743e+002
      vertex  2.500000e+002  2.780360e+002  2.028476e+002
    endloop
  endfacet
  facet normal  -0.000000e+000 -3.357043e-001 -9.419674e-001
    outer loop
      vertex -2.500000e+002  2.780360e+002  2.028476e+002
      vertex  2.500000e+002  2.780360e+002  2.028476e+002
      vertex -2.500000e+002  2.656003e+002  2.072796e+002
    endloop
  endfacet
  facet normal  0.000000e+000 -3.357043e-001 -9.419674e-001
    outer loop
      vertex -2.500000e+002  2.656003e+002  2.072796e+002
      vertex  2.500000e+002  2.780360e+002  2.028476e+002
      vertex  2.500000e+002  2.656003e+002  2.072796e+002
    endloop
  endfacet
  facet normal  -0.000000e+000 -4.347475e-001 -9.005524e-001
    outer loop
      vertex -2.500000e+002  2.656003e+002  2.072796e+002
      vertex  2.500000e+002  2.656003e+002  2.072796e+002
      vertex -2.500000e+002  2.537112e+002  2.130191e+002
    endloop
  endfacet
  facet normal  0.000000e+000 -4.347475e-001 -9.005524e-001
    outer loop
      vertex -2.500000e+002  2.537112e+002  2.130191e+002
      vertex  2.500000e+002  2.656003e+002  2.072796e+002
      vertex  2.500000e+002  2.537112e+002  2.130191e+002
    endloop
  endfacet
  facet normal  -0.000000e+000 -5.287804e-001 -8.487588e-001
    outer loop
      vertex -2.500000e+002  2.537112e+002  2.130191e+002
      vertex  2.500000e+002  2.537112e+002  2.130191e+002
      vertex -2.500000e+002  2.425060e+002  2.200000e+002
    endloop
  endfacet
  facet normal  0.000000e+000 -5.287804e-001 -8.487588e-001
    outer loop
      vertex -2.500000e+002  2.425060e+002  2.200000e+002
      vertex  2.500000e+002  2.537112e+002  2.130191e+002
      vertex  2.500000e+002  2.425060e+002  2.200000e+002
    endloop
  endfacet
  facet normal  0.000000e+000 -5.735764e-001 -8.191521e-001
    outer loop
      vertex -2.500000e+002 -4.419725e+001  4.207517e+002
      vertex -2.500000e+002  2.425060e+002  2.200000e+002
      vertex  2.500000e+002 -4.419725e+001  4.207517e+002
    endloop
  endfacet
  facet normal  0.000000e+000 -5.735764e-001 -8.191521e-001
    outer loop
      vertex  2.500000e+002 -4.419725e+001  4.207517e+002
      vertex -2.500000e+002  2.425060e+002  2.200000e+002
      vertex  2.500000e+002  2.425060e+002  2.200000e+002
    endloop
  endfacet
  facet normal  0.000000e+000  8.191521e-001 -5.735764e-001
    outer loop
      vertex -2.500000e+002 -3.137612e+002  1.578158e+002
      vertex -2.500000e+002 -1.416882e+002  4.035615e+002
      vertex  2.500000e+002 -3.137612e+002  1.578158e+002
    endloop
  endfacet
  facet normal  0.000000e+000  8.191521e-001 -5.735764e-001
    outer loop
      vertex  2.500000e+002 -3.137612e+002  1.578158e+002
      vertex -2.500000e+002 -1.416882e+002  4.035615e+002
      vertex  2.500000e+002 -1.416882e+002  4.035615e+002
    endloop
  endfacet
  facet normal  0.000000e+000 -5.735762e-001 -8.191522e-001
    outer loop
      vertex -2.500000e+002 -3.342400e+002  1.721553e+002
      vertex -2.500000e+002 -3.137612e+002  1.578158e+002
      vertex  2.500000e+002 -3.342400e+002  1.721553e+002
    endloop
  endfacet
  facet normal  0.000000e+000 -5.735762e-001 -8.191522e-001
    outer loop
      vertex  2.500000e+002 -3.342400e+002  1.721553e+002
      vertex -2.500000e+002 -3.137612e+002  1.578158e+002
      vertex  2.500000e+002 -3.137612e+002  1.578158e+002
    endloop
  endfacet
endsolid CATIA STL
